<svg width="16" height="16" viewBox="0 0 16 16" fill="none" xmlns="http://www.w3.org/2000/svg">
<path fill-rule="evenodd" clip-rule="evenodd" d="M8 14.2C11.3137 14.2 14 11.5137 14 8.19995C14 4.88624 11.3137 2.19995 8 2.19995C4.68629 2.19995 2 4.88624 2 8.19995C2 11.5137 4.68629 14.2 8 14.2ZM10.7803 7.23028C11.0732 6.93739 11.0732 6.46251 10.7803 6.16962C10.4874 5.87673 10.0126 5.87673 9.71967 6.16962L7.25 8.63929L6.28033 7.66962C5.98744 7.37673 5.51256 7.37673 5.21967 7.66962C4.92678 7.96251 4.92678 8.43739 5.21967 8.73028L6.71967 10.2303C7.01256 10.5232 7.48744 10.5232 7.78033 10.2303L10.7803 7.23028Z" fill="#29C15F"/>
</svg>
